<svg width="1237" height="457" viewBox="0 0 1237 457" fill="none" xmlns="http://www.w3.org/2000/svg">
<path d="M111.891 138.53C150.744 138.53 181.434 143.283 203.961 152.79C226.488 162.09 242.194 175.11 251.081 191.85C260.174 208.383 264.721 228.74 264.721 252.92C264.721 275.86 259.554 295.907 249.221 313.06C238.888 330.213 223.388 343.543 202.721 353.05C182.054 362.35 156.634 367 126.461 367C108.068 367 89.3644 367 70.351 367C51.3377 367 32.1177 366.897 12.691 366.69C14.3443 325.977 15.171 288.053 15.171 252.92C15.171 217.373 14.3443 180.277 12.691 141.63C37.2844 139.563 70.351 138.53 111.891 138.53ZM135.141 305.31C154.361 305.31 167.174 300.66 173.581 291.36C179.988 282.06 183.191 269.247 183.191 252.92C183.191 237.213 179.781 224.503 172.961 214.79C166.348 205.077 153.741 200.22 135.141 200.22C115.094 200.22 100.111 200.84 90.191 202.08V305.31H135.141ZM389.21 370.1C353.87 370.1 327.83 362.04 311.09 345.92C294.557 329.593 286.29 308.203 286.29 281.75C286.29 255.917 294.557 234.94 311.09 218.82C327.83 202.7 353.87 194.64 389.21 194.64C412.977 194.64 432.817 198.567 448.73 206.42C464.85 214.067 476.734 224.503 484.38 237.73C492.027 250.75 495.85 265.423 495.85 281.75C495.85 308.41 486.964 329.8 469.19 345.92C451.624 362.04 424.964 370.1 389.21 370.1ZM390.45 317.4C403.884 317.4 413.907 314.197 420.52 307.79C427.134 301.383 430.44 292.807 430.44 282.06C430.44 271.933 427.134 263.667 420.52 257.26C413.907 250.647 403.884 247.34 390.45 247.34C377.017 247.34 367.2 250.543 361 256.95C354.8 263.357 351.7 271.727 351.7 282.06C351.7 292.807 354.8 301.383 361 307.79C367.2 314.197 377.017 317.4 390.45 317.4ZM716.362 315.54C716.362 322.567 717.189 327.527 718.842 330.42C720.495 333.313 723.802 335.38 728.762 336.62L727.522 365.76C720.909 366.793 715.122 367.517 710.162 367.93C705.409 368.343 699.002 368.55 690.942 368.55C673.169 368.55 661.389 364.623 655.602 356.77C649.815 348.71 646.922 338.48 646.922 326.08V318.33C640.929 335.277 632.145 347.883 620.572 356.15C609.205 364.417 594.635 368.55 576.862 368.55C556.195 368.55 540.592 364.417 530.052 356.15C519.719 347.883 514.552 335.587 514.552 319.26C514.552 305.827 518.995 295.287 527.882 287.64C536.769 279.993 550.512 274.723 569.112 271.83C553.405 260.67 537.699 250.957 521.992 242.69C534.392 226.983 548.549 215.1 564.462 207.04C580.375 198.773 599.699 194.64 622.432 194.64C654.259 194.64 677.819 201.563 693.112 215.41C708.612 229.05 716.362 250.13 716.362 278.65V315.54ZM628.942 249.2C618.402 249.2 609.102 250.957 601.042 254.47C592.982 257.983 585.749 263.253 579.342 270.28C591.742 268.833 607.242 268.11 625.842 268.11C633.489 268.11 638.862 267.18 641.962 265.32C645.062 263.46 646.612 261.083 646.612 258.19C646.612 255.71 645.062 253.643 641.962 251.99C638.862 250.13 634.522 249.2 628.942 249.2ZM596.392 318.02C607.965 318.02 618.402 315.85 627.702 311.51C637.002 306.963 643.409 301.073 646.922 293.84V285.78C641.962 288.26 636.485 290.223 630.492 291.67C624.499 292.91 617.265 294.15 608.792 295.39L597.632 297.25C586.059 299.523 580.272 303.45 580.272 309.03C580.272 315.023 585.645 318.02 596.392 318.02ZM903.81 243.62C912.49 212.413 934.087 196.81 968.6 196.81C974.594 196.81 980.38 197.223 985.96 198.05L976.04 267.49C961.16 261.91 948.967 259.12 939.46 259.12C927.68 259.12 919 262.633 913.42 269.66C907.84 276.687 905.05 286.09 905.05 297.87V297.56L904.74 318.02C904.74 332.693 905.154 349.02 905.98 367H831.89C833.544 337.24 834.37 309.133 834.37 282.68C834.37 256.227 833.544 227.913 831.89 197.74C845.53 198.36 855.967 198.67 863.2 198.67C870.847 198.67 881.284 198.36 894.51 197.74L903.81 243.62ZM1165.41 289.5H1064.35C1066 298.593 1070.03 306.033 1076.44 311.82C1083.05 317.4 1092.35 320.19 1104.34 320.19C1113.02 320.19 1121.18 318.537 1128.83 315.23C1136.48 311.717 1142.57 306.86 1147.12 300.66C1160.97 307.48 1179.36 314.817 1202.3 322.67C1195.89 337.137 1184.22 348.71 1167.27 357.39C1150.53 365.863 1128.62 370.1 1101.55 370.1C1066.42 370.1 1040.38 362.04 1023.43 345.92C1006.69 329.593 998.321 308.203 998.321 281.75C998.321 255.917 1006.69 234.94 1023.43 218.82C1040.17 202.7 1066.21 194.64 1101.55 194.64C1122.63 194.64 1140.92 198.153 1156.42 205.18C1171.92 212.207 1183.8 222.023 1192.07 234.63C1200.34 247.03 1204.47 261.29 1204.47 277.41C1204.47 282.783 1204.26 286.813 1203.85 289.5H1165.41ZM1105.89 241.45C1095.56 241.45 1087.08 243.413 1080.47 247.34C1073.86 251.267 1069.21 256.64 1066.52 263.46H1139.68C1137.2 256.847 1133.17 251.577 1127.59 247.65C1122.01 243.517 1114.78 241.45 1105.89 241.45Z" fill="white"/>
<path d="M777.187 370.1C768.094 370.1 760.344 366.897 753.937 360.49C747.531 353.877 744.327 346.023 744.327 336.93C744.327 327.837 747.531 320.087 753.937 313.68C760.344 307.273 768.094 304.07 777.187 304.07C786.074 304.07 793.721 307.377 800.127 313.99C806.741 320.397 810.047 328.043 810.047 336.93C810.047 346.023 806.741 353.877 800.127 360.49C793.721 366.897 786.074 370.1 777.187 370.1Z" fill="#F4BE2F"/>
</svg>
